<?xml version="1.0" standalone="no"?>
<!DOCTYPE svg PUBLIC "-//W3C//DTD SVG 20010904//EN"
 "http://www.w3.org/TR/2001/REC-SVG-20010904/DTD/svg10.dtd">
<svg version="1.0" xmlns="http://www.w3.org/2000/svg"
 width="1200.000000pt" height="787.000000pt" viewBox="0 0 1200.000000 787.000000"
 preserveAspectRatio="xMidYMid meet">
<metadata>
Created by potrace 1.16, written by Peter Selinger 2001-2019
</metadata>
<g transform="translate(0.000000,787.000000) scale(0.100000,-0.100000)"
fill="#000000" stroke="none">
<path d="M4931 7420 c-365 -247 -672 -457 -682 -466 -11 -10 -19 -28 -19 -41
0 -32 1344 -2763 1371 -2785 29 -25 55 -22 84 7 l25 24 0 1830 c0 1368 -3
1836 -12 1856 -10 21 -18 25 -57 25 -44 0 -74 -19 -710 -450z"/>
<path d="M6294 7856 c-19 -14 -19 -46 -22 -1851 l-2 -1836 24 -24 c29 -29 65
-32 95 -7 11 9 323 630 692 1380 733 1491 692 1396 626 1446 -18 13 -264 180
-547 371 -283 192 -577 390 -653 442 -141 96 -173 108 -213 79z"/>
<path d="M2990 6086 c-382 -261 -699 -484 -704 -495 -6 -14 -5 -30 2 -45 13
-29 2746 -1888 2785 -1894 34 -5 63 19 72 60 6 26 -89 225 -681 1421 -378 766
-694 1400 -702 1410 -37 43 -46 38 -772 -457z"/>
<path d="M8229 6543 c-31 -35 -1389 -2808 -1389 -2835 0 -36 45 -71 85 -66 35
5 2759 1868 2776 1900 6 11 8 30 5 43 -4 16 -194 152 -698 496 -725 494 -743
505 -779 462z"/>
<path d="M5183 2871 c-93 -26 -145 -53 -194 -102 -64 -64 -84 -117 -83 -224 0
-79 3 -98 27 -148 43 -86 98 -127 317 -236 152 -75 196 -101 198 -117 5 -32
-22 -46 -85 -46 -74 0 -120 12 -261 69 -63 25 -117 41 -121 37 -5 -5 -29 -63
-56 -129 -26 -66 -49 -125 -52 -131 -6 -16 148 -83 253 -110 126 -31 222 -39
329 -25 164 22 271 85 322 189 24 49 28 69 28 142 0 73 -4 93 -28 142 -52 106
-130 160 -382 269 -116 50 -162 87 -145 118 28 53 207 29 357 -48 23 -11 46
-21 51 -21 7 0 90 172 129 267 6 16 -97 67 -189 94 -109 31 -318 36 -415 10z"/>
<path d="M2968 2865 c-70 -19 -131 -51 -182 -96 l-46 -41 0 61 0 61 -170 0
-170 0 0 -570 0 -570 180 0 180 0 0 368 c0 412 -4 388 76 442 122 85 279 47
313 -75 7 -26 11 -166 11 -387 l0 -348 170 0 170 0 0 399 c0 226 -4 421 -10
451 -29 155 -130 268 -272 306 -65 17 -187 17 -250 -1z"/>
<path d="M8997 2856 c-77 -22 -152 -63 -206 -112 l-51 -46 0 76 0 76 -75 0
-75 0 0 -560 0 -560 75 0 75 0 0 393 0 392 34 51 c122 181 404 233 532 99 75
-78 77 -88 82 -537 l4 -398 74 0 74 0 0 368 c0 403 -7 478 -49 568 -36 78 -88
129 -168 167 -56 26 -78 30 -171 33 -71 2 -123 -1 -155 -10z"/>
<path d="M245 2848 c-10 -28 -245 -1095 -245 -1111 0 -15 16 -17 168 -17 l169
0 49 239 c26 132 49 239 50 238 1 -1 36 -87 79 -192 42 -104 86 -212 97 -238
l21 -48 119 3 120 3 92 238 93 238 54 -241 53 -240 189 0 c147 0 188 3 185 13
-3 6 -61 263 -129 569 l-124 558 -146 0 -147 0 -15 -37 c-236 -604 -220 -568
-233 -531 -29 83 -193 535 -199 551 -6 15 -23 17 -151 17 -107 0 -146 -3 -149
-12z"/>
<path d="M1750 2290 l0 -570 175 0 175 0 0 570 0 570 -175 0 -175 0 0 -570z"/>
<path d="M3790 2290 l0 -570 425 0 425 0 0 150 0 150 -255 0 -255 0 0 65 0 65
205 0 205 0 0 145 0 145 -205 0 -205 0 0 60 0 60 245 0 245 0 0 150 0 150
-415 0 -415 0 0 -570z"/>
<path d="M6533 2846 c-73 -18 -152 -61 -212 -113 l-51 -45 0 76 0 76 -75 0
-75 0 0 -560 0 -560 75 0 75 0 1 388 0 387 43 60 c47 65 141 136 203 155 160
48 316 2 373 -109 34 -68 40 -145 40 -518 l0 -363 75 0 75 0 0 363 c0 382 -6
459 -41 554 -30 80 -113 161 -194 193 -74 28 -233 36 -312 16z"/>
<path d="M10222 2840 c-104 -28 -167 -65 -247 -145 -112 -111 -164 -244 -165
-416 0 -262 157 -481 397 -552 157 -47 361 -23 499 58 44 26 44 26 28 53 -8
15 -26 40 -39 56 l-23 29 -70 -36 c-220 -110 -466 -45 -570 151 -79 148 -82
316 -7 469 106 215 348 282 586 163 33 -17 62 -30 63 -28 2 2 17 29 35 60 l32
57 -46 27 c-79 46 -160 66 -285 70 -93 3 -129 0 -188 -16z"/>
<path d="M7532 2298 c-127 -299 -234 -551 -238 -561 -6 -16 0 -18 76 -15 l82
3 66 163 66 162 245 0 246 0 66 -163 65 -162 88 -3 c54 -2 87 1 84 7 -1 5
-106 258 -233 560 l-230 551 -76 0 -76 0 -231 -542z m406 112 l90 -215 -185
-3 c-102 -1 -187 -1 -189 1 -2 2 38 103 88 225 51 122 96 218 100 214 4 -4 47
-104 96 -222z"/>
<path d="M10890 2835 c0 -2 108 -221 240 -485 l240 -480 -170 -334 c-94 -183
-170 -336 -170 -339 0 -4 36 -7 80 -7 l80 0 405 817 c223 449 405 820 405 825
0 4 -37 8 -83 8 l-83 0 -189 -392 c-103 -216 -191 -396 -195 -401 -3 -4 -90
171 -193 390 l-187 398 -90 3 c-49 1 -90 0 -90 -3z"/>
<path d="M3517 515 c-114 -267 -210 -492 -214 -501 -5 -12 17 -14 158 -12
l163 3 29 73 29 72 183 0 183 0 33 -75 33 -75 174 0 c95 0 172 4 170 9 -1 4
-95 229 -208 499 l-205 492 -160 0 -160 0 -208 -485z m396 29 c21 -59 41 -113
44 -120 4 -11 -13 -14 -92 -14 -88 0 -97 2 -91 18 34 88 91 222 96 222 3 0 22
-48 43 -106z"/>
<path d="M4570 500 l0 -500 155 0 155 0 0 150 0 150 38 0 c37 0 37 0 131 -150
l93 -150 180 0 179 0 -74 107 c-41 60 -98 141 -126 182 l-50 74 44 28 c87 55
128 139 127 261 0 101 -25 162 -91 229 -99 99 -186 118 -538 119 l-223 0 0
-500z m489 214 c27 -22 31 -32 31 -74 0 -80 -45 -110 -166 -110 l-54 0 0 105
0 105 79 0 c71 0 83 -3 110 -26z"/>
<path d="M5480 865 l0 -135 150 0 150 0 0 -365 0 -365 155 0 155 0 0 365 0
365 145 0 145 0 0 135 0 135 -450 0 -450 0 0 -135z"/>
<path d="M6480 500 l0 -500 375 0 375 0 0 130 0 130 -225 0 -225 0 0 50 0 50
185 0 185 0 0 135 0 135 -185 0 -185 0 0 50 0 50 220 0 220 0 0 135 0 135
-370 0 -370 0 0 -500z"/>
<path d="M7550 993 c0 -4 -47 -228 -105 -497 -58 -269 -105 -490 -105 -493 0
-2 68 -2 152 -1 l152 3 35 187 c20 103 39 189 42 192 3 4 43 -82 89 -189 l83
-195 112 0 112 0 78 200 c43 110 81 200 84 200 3 0 24 -89 46 -197 l41 -198
168 -3 168 -2 -5 22 c-13 53 -217 968 -217 973 0 3 -59 4 -131 3 l-132 -3
-100 -252 c-55 -139 -103 -253 -107 -253 -4 0 -49 114 -101 253 l-94 252 -133
3 c-72 1 -132 -1 -132 -5z"/>
</g>
</svg>
