<?xml version="1.0" encoding="UTF-8"?>
<svg id="Calque_1" data-name="Calque 1" xmlns="http://www.w3.org/2000/svg" viewBox="0 0 2182.42 786.75">
  <defs>
    <style>
      .cls-1 {
        fill: #010101;
      }

      .cls-1, .cls-2 {
        stroke-width: 0px;
      }

      .cls-2 {
        fill: #040b8c;
      }
    </style>
  </defs>
  <path class="cls-2" d="M675.68,393.46c0,64.36-.02,128.72.06,193.09,0,2.96-.84,4.6-3.46,6.13-109.93,64.09-219.82,128.24-329.65,192.5-3.42,2-5.83,2.18-9.38.1-109.93-64.33-219.93-128.54-329.98-192.68-2.53-1.47-3.26-3.03-3.26-5.84C.08,457.77.08,328.8,0,199.82c0-2.85.82-4.35,3.32-5.81C113.25,129.93,223.14,65.78,332.97,1.53c3.64-2.13,6.38-1.97,9.92.1,109.73,64.17,219.51,128.27,329.34,192.29,2.59,1.51,3.53,3.08,3.53,6.09-.09,64.49-.07,128.97-.07,193.46ZM613.46,393.31c0-52.62-.02-105.23.06-157.85,0-2.68-.69-4.18-3.1-5.59-89.78-52.34-179.51-104.75-269.18-157.27-2.62-1.54-4.31-1.24-6.69.15-89.73,52.42-179.48,104.79-269.28,157.09-2.38,1.39-3.15,2.85-3.15,5.56.07,105.23.07,210.46,0,315.69,0,2.68.69,4.15,3.11,5.56,89.91,52.35,179.78,104.78,269.6,157.29,2.41,1.41,4.03,1.35,6.34,0,89.69-52.48,179.41-104.92,269.18-157.27,2.39-1.39,3.17-2.81,3.16-5.52-.09-52.62-.06-105.23-.06-157.85Z"/>
  <path class="cls-1" d="M782.9,356.34c3.07-4.52,5.7-9.11,9.41-12.98,9.22-9.66,20.8-14.8,33.76-16.1,16.44-1.66,32.66-.02,48.05,6.7,12.43,5.42,21.89,14.17,28.87,25.71.96,1.59,1.92,3.19,3.11,5.16,2.91-6.86,6.73-12.72,11.5-17.98,10.3-11.36,23.37-17.46,38.29-19.29,18.11-2.21,35.89-.56,52.73,7.16,16.86,7.73,27.48,20.99,33.71,38.18,5.53,15.27,6.89,31.14,6.94,47.18.09,29.99-.03,59.98.1,89.97.01,3.13-.77,3.91-3.88,3.88-16.99-.16-33.98-.16-50.97,0-2.89.03-3.42-.79-3.41-3.51.1-30.24.04-60.48.08-90.72,0-7.27-.32-14.52-1.73-21.63-3.27-16.42-14.16-25.71-31-26.7-5.37-.32-10.77-.29-16.04.87-14.01,3.06-22.38,12.43-24.77,27.08-1.15,7.06-1.57,14.13-1.57,21.26.02,29.74-.04,59.48.08,89.22.01,3.13-.49,4.21-3.98,4.16-16.74-.22-33.48-.18-50.22-.03-3.03.03-3.95-.63-3.94-3.82.13-29.86.1-59.73.06-89.6,0-7.5-.39-14.97-1.85-22.36-3.08-15.6-12.15-24.2-27.92-26.39-6.49-.9-13-.91-19.36.58-14.32,3.36-22.49,12.76-24.7,27.59-1.02,6.82-1.38,13.65-1.37,20.53.02,29.87-.04,59.73.09,89.6.01,3.08-.67,3.91-3.83,3.88-16.99-.18-33.98-.14-50.97-.02-2.55.02-3.33-.51-3.33-3.22.09-58.48.09-116.96,0-175.44,0-2.9.82-3.47,3.54-3.45,16.99.13,33.98.15,50.97-.02,3.07-.03,3.68.95,3.61,3.77-.19,6.93-.06,13.86-.06,20.79Z"/>
  <path class="cls-1" d="M1509.87,361.09c20.28-26.85,47.88-34.38,78.64-34.38,17.48,0,34.66,2.33,50.99,8.77,32.83,12.95,52.37,36.71,57.11,72.01,2.43,18.09,1.11,35.93-5.45,53.07-7.69,20.08-21.47,34.96-40.49,44.78-23.93,12.36-49.66,14.97-76.1,13.22-12.48-.82-24.32-4.02-35.62-9.35-10.23-4.83-18.74-11.82-25.93-20.49-.85-1.02-1.67-2.06-3.15-3.88,0,8.88-.24,16.81.1,24.72.16,3.78-1.07,4.41-4.54,4.37-16.61-.19-33.23-.15-49.84-.03-2.77.02-3.78-.47-3.78-3.58.1-86.97.09-173.94,0-260.91,0-2.82.68-3.5,3.49-3.48,16.99.15,33.98.15,50.97,0,2.96-.03,3.67.76,3.66,3.68-.11,35.49-.07,70.98-.07,106.46v5.01ZM1577.94,474.74c4.7.08,12.27-.57,19.74-2.23,14.45-3.21,27.21-9.09,35.21-22.45,6.01-10.04,7.73-21.05,6.75-32.46-1.57-18.21-10.04-32.08-27.21-39.41-22.16-9.46-45.07-9.07-67.86-2.87-12.35,3.36-22.55,10.49-28.88,22.23-5.17,9.58-6.47,19.91-5.63,30.49,1.39,17.58,9.41,31.06,25.64,38.96,12.41,6.04,25.69,7.72,42.24,7.73Z"/>
  <path class="cls-1" d="M1849.97,519.06c-21.98.1-43.56-2.38-64.38-9.9-16.72-6.04-31.65-14.91-43.16-28.63-11.97-14.27-18.41-30.97-19.56-49.6-.91-14.85.45-29.38,6.16-43.33,7.21-17.63,19.18-31.09,35.33-40.91,19.64-11.93,41.42-16.81,63.98-18.95,16.97-1.6,33.94-1.46,50.82.78,25.45,3.37,49.61,10.35,69.48,27.73,14.91,13.04,24.15,29.46,27.31,49,2.78,17.24,2.01,34.32-4.18,50.89-7.06,18.89-19.64,33.09-36.82,43.32-19.38,11.54-40.7,16.63-62.91,18.75-7.35.7-14.71.77-22.07.85ZM1850.01,474.73c9.66.13,19.21-.77,28.58-3.11,11.45-2.86,22.03-7.38,29.98-16.56,9.07-10.48,11.57-22.98,10.77-36.37-1.12-18.64-10.02-32.33-27.2-39.71-24.27-10.42-49.44-9.88-74.54-3.67-12.37,3.06-23.02,9.56-30.12,20.75-6.24,9.84-7.65,20.77-6.78,32.04,1.24,16.16,8.57,28.77,22.98,36.72,14.42,7.96,30.21,9.81,46.34,9.91Z"/>
  <path class="cls-1" d="M1088.02,423.17c0-29,.07-57.99-.08-86.99-.02-3.59,1.15-4.43,4.49-4.4,16.37.14,32.74.16,49.11-.01,3.64-.04,4.81,1.12,4.62,4.71-.28,5.23-.1,10.49-.09,15.74,0,.7-.18,1.62.71,1.94.97.35,1.21-.66,1.62-1.17,16.49-20.66,39.27-26.01,64.09-26.18,13.02-.09,25.95,1.23,38.5,4.81,13.08,3.73,25.21,9.44,35.2,18.99,11.7,11.18,18.92,24.93,22.9,40.45,3.24,12.65,4.39,25.57,4.41,38.6.04,26.75-.04,53.49.08,80.24.01,3.03-.65,4.04-3.86,4.01-16.74-.16-33.49-.16-50.23,0-3.25.03-4.23-.83-4.23-4.17-.04-30.12.58-60.24-.3-90.35-.28-9.69-2.89-18.95-8.04-27.35-5.89-9.6-14.87-15.32-25.28-18.06-14.55-3.83-29.43-4.02-43.93.7-20.2,6.57-29.09,21.84-31.23,41.95-.42,3.96-.37,7.99-.38,11.98-.03,27.12-.05,54.24.03,81.36,0,2.73-.42,3.98-3.61,3.95-17.12-.16-34.24-.14-51.35-.01-2.7.02-3.23-.8-3.22-3.37.1-29.12.06-58.24.06-87.36Z"/>
  <path class="cls-1" d="M2103.32,413.73c.08,10.99-.29,22,.51,32.98.44,6.03,1.74,11.82,4.7,17.18,3.45,6.24,9,9.3,15.77,10.04,12.3,1.35,24.41.05,36.26-3.53q6.22-1.88,8.73,4.14c4.17,10,8.28,20.03,12.59,29.97,1.12,2.57.53,3.71-1.92,4.88-12.73,6.09-26.4,8.17-40.23,9.21-17.27,1.3-34.5.61-51.2-4.51-19.27-5.91-31.92-18.67-38.01-37.97-4.31-13.64-5.04-27.73-5.23-41.84-.24-17.87-.17-35.74.03-53.61.04-3.62-1.16-4.39-4.47-4.36-12.99.15-25.99,0-38.98.12-2.48.03-3.18-.59-3.16-3.1.13-12.62.14-25.25,0-37.87-.03-2.87.98-3.65,3.67-3.63,13.12.09,26.24-.05,39.36.12,2.89.04,3.57-.79,3.55-3.56-.13-15,.02-29.99-.12-44.99-.03-3.4.97-4.59,4.47-4.55,16.49.15,32.99.14,49.48,0,3.3-.03,4.3,1.02,4.27,4.3-.15,15,0,29.99-.12,44.99-.02,2.87.62,3.84,3.74,3.82,21.36-.16,42.73-.01,64.1-.15,3.6-.02,4.66,1.01,4.58,4.67-.25,11.99-.2,23.99-.02,35.99.05,3.08-.69,4-3.9,3.98-21.24-.15-42.48,0-63.72-.16-3.77-.03-4.92.98-4.82,4.82.27,10.87.09,21.74.09,32.62Z"/>
  <path class="cls-1" d="M1411.66,422.98c0,29.12-.03,58.23.06,87.35,0,2.66-.43,3.61-3.4,3.59-17.11-.16-34.23-.13-51.35-.02-2.4.01-3.11-.56-3.1-3.05.07-58.61.08-117.22,0-175.83,0-2.75.9-3.22,3.39-3.21,16.99.1,33.98.12,50.97-.02,2.76-.02,3.52.6,3.51,3.47-.12,29.24-.07,58.48-.07,87.73Z"/>
  <path class="cls-1" d="M1382.86,308.57c-16.73.16-30.22-13.18-30.4-30.04-.17-16.94,13.25-30.54,30.21-30.59,16.47-.05,30.6,13.65,30.34,30.22-.28,18.09-13.97,29.96-30.15,30.41Z"/>
  <path class="cls-2" d="M149.7,345.21c.08-20.72,6.07-35.76,19.41-47.29,19.78-17.1,47.95-14.98,65.36,4.57,18.43,20.71,19.6,54.2,2.66,76.12-23.01,29.78-66.1,24.25-81.88-10.48-3.78-8.32-5.79-16.97-5.55-22.92Z"/>
  <path class="cls-2" d="M526.09,342.05c-.2,17.15-5.67,32.19-18.69,43.71-20.46,18.12-48.37,16.05-66.7-4.58-19.8-22.27-18.56-59.97,2.66-80.86,20.7-20.37,52.52-18.16,70.26,4.88,8.35,10.85,12.43,22.9,12.47,36.85Z"/>
  <path class="cls-2" d="M337.8,438.96c16.1,0,32.21,0,48.31.02,1.47,0,3.27-.67,3.27,2.14,0,20.17-13.05,46.85-35.52,56.04-16.82,6.88-36.41,2.17-49.55-11.96-11.01-11.84-16.86-25.97-17.97-42.12-.22-3.14.38-4.26,3.91-4.21,15.85.23,31.71.1,47.56.1Z"/>
</svg>