<?xml version="1.0"?>
<svg width="540" height="540" xmlns="http://www.w3.org/2000/svg" xmlns:svg="http://www.w3.org/2000/svg" preserveAspectRatio="xMidYMid meet" version="1.0">
 <metadata>Created by potrace 1.16, written by Peter Selinger 2001-2019</metadata>
 <g class="layer">
  <title>Layer 1</title>
  <g fill="#000000" id="svg_1" transform="matrix(0.0503176 0 0 -0.0503176 603.176 794.206)">
   <path d="m-4527.05,15665.85l-45,-92l0,-457c0,-415 2,-459 17,-481c23,-34 52,-57 85,-69c33,-12 46,1 91,90l32,64l-3,415l-4,415l-51,99c-29,55 -57,101 -64,103c-7,3 -31,-34 -58,-87z" fill="#A04040" id="svg_2"/>
   <path d="m-8529.05,14787.85c-92,-69 -114,-92 -209,-222c-160,-216 -786,-1071 -806,-1100c-10,-14 -25,-35 -34,-47c-17,-24 -106,-224 -101,-229c1,-2 44,-12 95,-23c112,-26 245,-27 527,-6c110,8 212,15 226,15l26,0l-14,-97c-7,-54 -49,-285 -93,-513c-95,-495 -150,-795 -150,-818c0,-30 43,-162 52,-162c5,0 38,20 72,45c62,44 63,45 236,357c667,1203 960,1743 966,1784c8,56 -12,89 -63,103c-24,7 -187,11 -427,11c-360,0 -388,1 -382,17c13,32 155,529 181,633c24,94 26,116 20,210c-3,58 -10,108 -13,112c-4,4 -53,-28 -109,-70z" fill="#A04040" id="svg_3"/>
   <path d="m-6607.05,14746.85l11,-100l228,-233c126,-128 268,-272 315,-319l86,-87l78,0c43,-1 82,-4 86,-7c21,-12 24,127 5,196c-3,9 -145,154 -317,321l-313,305l-59,7c-33,4 -76,9 -96,12l-35,5l11,-100z" fill="#A04040" id="svg_4"/>
   <path d="m-2417.05,14809.85c-49,-13 -102,-27 -117,-30c-19,-4 -114,-97 -301,-293c-151,-158 -279,-296 -285,-308c-7,-12 -12,-56 -12,-98c0,-75 1,-77 23,-72c12,3 49,11 81,17l59,12l294,286c161,157 304,304 318,327c13,23 33,74 44,114c23,84 30,81 -104,45z" fill="#A04040" id="svg_5"/>
   <path d="m-4657.05,13870.85c-113,-20 -223,-57 -351,-120c-332,-162 -563,-454 -640,-810c-36,-167 -27,-380 22,-555c31,-109 119,-285 186,-375c279,-370 743,-564 1174,-490c466,81 817,372 958,795c46,140 60,241 53,408c-11,307 -119,551 -347,783c-186,188 -358,287 -615,350c-107,27 -330,34 -440,14zm430,-234c386,-126 626,-354 712,-679c23,-84 26,-118 26,-252c1,-171 -12,-246 -63,-377c-124,-322 -410,-545 -772,-603c-98,-16 -311,-8 -393,15c-245,68 -495,274 -622,512c-145,272 -135,610 28,923c113,218 287,362 533,445c117,39 219,55 341,51c92,-2 127,-8 210,-35z" fill="#A04040" id="svg_6"/>
   <path d="m-7296.05,12810.85c-11,-6 -37,-17 -56,-25c-19,-8 -63,-31 -98,-51l-63,-37l94,-60l94,-60l370,-7c363,-7 372,-7 409,13c22,11 79,39 128,61c49,23 87,43 85,45c-11,12 -108,75 -134,88c-17,9 -61,21 -100,27c-96,15 -701,20 -729,6z" fill="#A04040" id="svg_7"/>
   <path d="m-2417.05,12799.85c-22,-14 -71,-45 -109,-69l-69,-42l56,-42c105,-80 114,-81 555,-81l389,0l59,41c32,23 74,54 92,70l32,28l-27,18c-16,10 -53,35 -83,57l-55,40l-400,4l-400,3l-40,-27z" fill="#A04040" id="svg_8"/>
   <path d="m-9287.05,11455.85l-2120,-6l-80,-23c-103,-29 -164,-63 -227,-125c-73,-72 -112,-159 -116,-261c-4,-77 2,-99 126,-550c150,-541 975,-3529 991,-3592c18,-67 95,-143 199,-196c217,-111 267,-117 1055,-117l627,0l0,-297l0,-298l-78,-1c-125,-2 -285,-45 -364,-97c-18,-12 -43,-42 -56,-68l-22,-45l10,-289c12,-318 11,-315 77,-356l38,-24l1398,-14l1399,-14l44,21c83,41 84,44 84,393c0,348 -4,373 -71,433c-46,42 -43,41 -232,60c-82,8 -150,16 -152,18c-3,2 -7,115 -11,251l-7,246l24,9c51,19 1437,60 2134,63c280,1 319,6 402,46c106,52 181,141 204,241c18,77 1,148 -77,319c-221,490 -662,1453 -823,1801c-104,224 -259,565 -344,757c-543,1225 -619,1372 -806,1547c-116,110 -157,126 -400,154c-172,20 -248,23 -456,22c-137,-1 -1204,-5 -2370,-8zm1463,-833c118,-285 212,-520 210,-522c-1,-1 -392,-4 -867,-6l-864,-4l-24,80c-14,44 -85,277 -159,519c-73,241 -131,442 -128,447c3,5 366,8 812,6l807,-2l213,-518zm1523,495c24,-16 56,-46 71,-68c26,-37 428,-904 428,-922c0,-10 -553,-22 -1056,-22c-280,0 -363,3 -367,13c-2,6 -95,236 -206,509c-110,274 -201,502 -201,508c0,7 209,10 643,10l643,0l45,-28zm-3538,-499c86,-285 157,-524 157,-530c0,-13 -375,-18 -1317,-18l-238,0l-126,460c-140,511 -136,476 -66,543c65,62 47,61 772,62l660,0l158,-517zm4500,-1491c159,-345 291,-634 294,-643c4,-15 -52,-17 -659,-24c-364,-3 -706,-5 -758,-3l-94,3l-142,350c-308,764 -374,928 -374,936c0,8 1393,19 1430,11c9,-2 127,-247 303,-630zm-2055,456c39,-95 157,-382 262,-638c106,-256 194,-470 197,-476c5,-14 -1883,-32 -1897,-18c-11,11 -400,1264 -400,1287c0,16 64,17 884,17l883,0l71,-172zm-2149,65c141,-457 360,-1197 356,-1202c-8,-8 -1605,-15 -1605,-7c0,7 -155,574 -281,1031c-38,137 -69,255 -69,262c0,10 154,13 784,13l784,0l31,-97zm642,-2133l166,-555l-751,-3c-499,-2 -763,1 -787,8c-48,13 -121,79 -142,127c-18,41 -267,944 -267,968c0,13 100,15 807,13l807,-3l167,-555zm2127,548c9,-11 462,-1104 462,-1114c0,-2 -464,-3 -1032,-2l-1031,3l-174,560c-95,308 -173,561 -173,563c0,1 436,2 969,2c763,0 971,-3 979,-12zm1920,0c20,-26 482,-1048 482,-1068c0,-12 -5,-30 -10,-41c-10,-19 -30,-19 -778,-19c-422,0 -772,4 -778,8c-11,7 -454,1102 -454,1121c0,17 1524,15 1538,-1zm-2188,-1793l0,-325l-733,0c-722,0 -734,0 -752,20c-16,18 -20,55 -31,293c-7,149 -13,287 -13,305l-1,32l765,0l765,0l0,-325zm485,-735l0,-195l-640,0c-352,0 -920,2 -1262,5l-623,5l0,193l0,192l1263,-2l1262,-3l0,-195z" fill="#A04040" id="svg_9"/>
   <path d="m-3127.05,11294.85c4,-52 13,-103 20,-114c8,-11 148,-157 312,-324l298,-304l55,-7c30,-5 67,-11 83,-15l27,-7l0,98c-1,58 -6,108 -13,121c-7,12 -143,156 -304,321l-292,299l-66,7c-36,4 -79,9 -96,13l-31,6l7,-94z" fill="#A04040" id="svg_10"/>
   <path d="m-4510.05,10752.85l-52,-83l-11,-408c-11,-405 -11,-409 10,-435c11,-14 39,-56 62,-93c43,-71 53,-79 63,-51c4,9 26,46 50,82l44,66l3,428l4,428l-31,27c-18,15 -44,48 -59,75c-15,26 -28,47 -29,47c-1,0 -25,-37 -54,-83z" fill="#A04040" id="svg_11"/>
  </g>
 </g>
</svg>