<?xml version="1.0"?>
<svg width="540" height="540" xmlns="http://www.w3.org/2000/svg" xmlns:svg="http://www.w3.org/2000/svg" preserveAspectRatio="xMidYMid meet" version="1.0">
 <metadata>Created by potrace 1.16, written by Peter Selinger 2001-2019</metadata>
 <g class="layer">
  <title>Layer 1</title>
  <g fill="#000000" id="svg_1" transform="matrix(0.061115 0 0 -0.061115 -47.7452 15.3952)">
   <path d="m4941.63,-2020.84c-179,-272 -429,-651 -555,-842c-127,-191 -331,-500 -455,-687c-123,-187 -304,-461 -402,-609c-98,-148 -177,-270 -176,-271c2,-2 228,-46 503,-99c275,-53 519,-101 542,-107c88,-24 133,-74 133,-150c0,-18 -34,-217 -75,-443c-83,-456 -87,-475 -209,-1106c-47,-245 -86,-451 -86,-458c0,-44 60,41 324,458c161,256 325,513 362,573c903,1413 1240,1953 1225,1959c-9,4 -238,50 -510,102c-535,103 -572,114 -604,176c-30,57 -24,99 132,885c52,263 200,1052 203,1085c8,74 -38,12 -352,-466z" fill="#E42618" id="svg_2"/>
   <path d="m1031.63,-2018.84c-117,-26 -173,-73 -206,-174c-18,-55 -19,-133 -19,-1947c0,-1798 1,-1893 18,-1956c31,-112 91,-165 212,-188c44,-9 450,-11 1480,-9l1419,3l31,155c17,85 34,170 38,187l6,33l-1357,2c-1348,3 -1357,3 -1392,24c-70,41 -65,-98 -65,1739c0,1587 1,1661 18,1693c12,22 35,41 65,55l47,22l1490,5c1155,4 1495,8 1512,17c11,7 35,30 51,51c31,38 192,288 192,297c0,3 -784,5 -1742,4c-1329,0 -1756,-4 -1798,-13z" fill="#E42618" id="svg_3"/>
   <path d="m5485.63,-2222.84c-23,-119 -41,-218 -40,-218c4,-4 1902,-24 2306,-25c261,0 501,-4 532,-8c67,-8 104,-32 131,-85c20,-38 20,-42 -7,-1619c-24,-1449 -28,-1584 -44,-1616c-9,-19 -28,-43 -42,-53c-24,-17 -108,-18 -1599,-27c-1277,-8 -1576,-12 -1586,-23c-15,-16 -245,-384 -245,-392c0,-3 814,-6 1809,-6c1654,0 1813,1 1860,17c71,23 122,70 157,145l29,63l3,1894c3,2078 6,1967 -56,2056c-35,50 -114,91 -202,105c-42,6 -586,10 -1515,10l-1450,0l-41,-218z" fill="#E42618" id="svg_4"/>
   <path d="m9081.63,-3374.84c-20,-20 -20,-33 -20,-790l0,-770l265,0l265,0l0,790l0,790l-245,0c-232,0 -246,-1 -265,-20z" fill="#E42618" id="svg_5"/>
  </g>
 </g>
</svg>