<?xml version="1.0"?>
<svg width="540" height="540" xmlns="http://www.w3.org/2000/svg" xmlns:svg="http://www.w3.org/2000/svg" preserveAspectRatio="xMidYMid meet" version="1.0">
 <metadata>Created by potrace 1.16, written by Peter Selinger 2001-2019</metadata>
 <g class="layer">
  <title>Layer 1</title>
  <g fill="#000000" id="svg_1" transform="matrix(0.074795 0 0 -0.0726061 212.235 188.951)">
   <path d="m1597.85,2562.03l-45,-23l2,-80c2,-63 16,-126 66,-305c42,-149 60,-226 52,-228c-6,-1 -73,9 -148,23c-286,52 -371,59 -712,60c-343,0 -423,-7 -679,-61c-623,-132 -1176,-442 -1676,-944c-555,-555 -860,-1223 -930,-2035c-13,-152 -7,-208 25,-241c52,-52 153,-36 180,29c8,19 28,143 44,275c35,275 64,417 127,614c229,709 704,1307 1345,1694c240,144 536,269 801,338c303,79 483,101 818,100c274,-1 380,-12 613,-60c206,-44 204,-45 -303,-194c-187,-55 -234,-80 -245,-129c-8,-39 10,-103 36,-127c36,-33 97,-22 439,79c179,53 383,113 454,133c72,21 138,46 149,57c15,15 18,29 15,65c-4,38 -218,780 -260,899c-29,82 -86,102 -168,61z" fill="#656780" id="svg_2"/>
   <path d="m2787.85,1234.03c-36,-71 -29,-82 184,-294c214,-213 322,-342 465,-556c250,-376 412,-799 481,-1255c30,-201 37,-521 16,-725c-56,-523 -231,-1005 -528,-1450c-65,-96 -196,-262 -220,-276c-7,-4 -9,58 -8,177c2,101 2,242 1,312l-1,129l-53,55l-54,56l-55,-42c-45,-34 -57,-48 -62,-79c-3,-20 -6,-254 -6,-519l0,-483l520,0l520,0l40,36c28,26 40,44 40,64c0,31 -49,103 -82,121c-16,9 -103,11 -316,10l-294,-2l33,45c228,309 339,484 444,701c234,481 337,951 322,1475c-9,313 -53,595 -142,904c-176,614 -452,1067 -898,1474c-158,145 -173,154 -256,160l-69,5l-22,-43z" fill="#656780" id="svg_3"/>
   <path d="m32.85,649.03l-270,-113l-5,-284l-5,-283l-28,-58c-32,-63 -71,-99 -138,-122c-38,-14 -79,-15 -299,-9c-240,6 -256,5 -278,-12c-21,-18 -78,-145 -188,-423l-49,-124l192,-186c213,-207 224,-224 227,-336c2,-132 -13,-153 -307,-415c-64,-57 -117,-109 -117,-116c0,-15 133,-340 172,-421c37,-75 81,-118 138,-133c25,-7 125,-10 258,-9c252,2 275,-3 350,-85c72,-78 73,-86 70,-354c-3,-265 -2,-273 67,-329c40,-34 300,-144 398,-170c102,-27 123,-17 285,140c75,73 170,157 210,186l73,54l80,-7c130,-11 135,-14 249,-161c209,-272 273,-289 555,-148c55,28 132,62 172,77c108,41 108,42 93,325c-9,167 -10,237 -2,266c28,100 118,187 206,200c22,4 156,7 296,8l254,2l44,100c24,55 67,152 97,215c30,63 59,136 65,161c24,98 -17,161 -196,299c-157,121 -213,203 -214,309c0,101 36,150 279,370c104,95 131,134 131,190c0,27 -43,138 -171,448c-28,67 -39,82 -59,86c-14,3 -124,-1 -245,-9c-248,-16 -294,-11 -369,36c-51,33 -100,102 -117,164c-8,29 -8,101 0,251c12,227 8,266 -32,303c-13,12 -65,40 -116,62c-142,62 -409,170 -419,170c-5,0 -86,-86 -181,-190c-115,-127 -187,-198 -215,-212c-58,-29 -158,-35 -225,-13c-59,19 -94,52 -296,279c-66,74 -127,135 -135,135c-8,0 -136,-51 -285,-114zm1540,-205c22,-10 59,-31 82,-48c55,-41 60,-70 38,-232c-21,-149 -13,-234 31,-329c31,-69 217,-254 283,-284c52,-23 131,-26 338,-13c176,11 196,5 228,-68c34,-78 49,-147 41,-192c-9,-43 -80,-120 -191,-204c-124,-94 -160,-185 -159,-395c1,-221 12,-242 267,-464c59,-52 107,-100 107,-107c0,-25 -62,-184 -82,-209c-39,-50 -73,-60 -193,-57c-304,9 -284,10 -357,-26c-77,-38 -210,-157 -256,-230c-52,-81 -62,-135 -62,-335c0,-243 -2,-246 -179,-324l-76,-33l-84,87c-46,49 -110,121 -143,160c-96,115 -190,149 -388,140c-117,-5 -179,-24 -264,-80c-66,-44 -147,-126 -203,-205c-41,-57 -84,-92 -113,-92c-6,0 -38,12 -73,27c-187,83 -180,71 -167,294c8,149 7,185 -6,235c-26,101 -130,248 -219,309c-89,62 -151,75 -351,75c-197,0 -223,6 -287,68c-52,49 -77,101 -77,157c0,38 6,51 37,86c21,23 65,59 99,80c120,76 200,192 225,324c6,33 9,121 7,195c-3,125 -5,139 -30,181c-29,49 -121,140 -235,232c-80,65 -98,97 -90,163c7,62 61,168 100,196c27,19 44,23 107,22c41,0 93,-7 115,-14c56,-19 179,-18 240,3c73,25 168,100 271,214c89,97 91,101 97,159c4,32 3,135 -2,229c-11,193 -6,215 52,259c46,35 127,66 173,66c65,0 115,-41 192,-156c109,-164 244,-222 491,-211c167,8 183,16 336,185c128,141 148,158 204,178c39,14 66,11 126,-16z" fill="#656780" id="svg_4"/>
   <path d="m703.85,-511.97c-330,-71 -573,-301 -647,-609c-28,-119 -23,-312 11,-420c84,-268 298,-474 566,-546c59,-16 109,-22 199,-22c149,-1 259,24 395,90c82,39 108,58 185,137c69,69 101,111 133,174c200,385 131,754 -191,1022c-92,78 -246,154 -349,175c-95,19 -211,18 -302,-1zm247,-239c91,-16 202,-68 270,-126c64,-55 131,-152 163,-235c36,-93 45,-252 19,-340c-96,-332 -443,-512 -759,-394c-229,86 -389,332 -371,571c6,86 44,203 89,272c79,124 231,225 378,252c94,17 117,17 211,0z" fill="#656780" id="svg_5"/>
   <path d="m-2301.15,-1991.97c-17,-14 -56,-71 -88,-127c-31,-56 -130,-226 -221,-377c-178,-297 -201,-341 -202,-382c0,-63 97,-124 158,-99c38,16 60,48 217,311c70,118 131,219 135,223c4,4 31,-48 60,-115c195,-449 391,-747 699,-1062c305,-311 627,-537 1011,-711c449,-203 899,-299 1395,-298c322,1 574,34 879,118c227,62 513,178 541,219c32,44 11,137 -37,170c-35,25 -71,19 -186,-28c-243,-100 -521,-178 -777,-218c-117,-18 -184,-22 -405,-22c-287,0 -373,8 -652,65c-877,178 -1560,657 -2023,1419c-92,150 -219,408 -243,490c-11,41 -20,75 -19,76c1,0 122,-70 269,-157c147,-87 283,-162 304,-168c55,-15 96,5 123,63c19,39 21,51 12,79c-7,19 -22,43 -34,55c-12,11 -177,111 -367,222c-190,112 -356,210 -369,219c-100,69 -132,75 -180,35z" fill="#656780" id="svg_6"/>
  </g>
 </g>
</svg>