<?xml version="1.0" standalone="no"?>
<!DOCTYPE svg PUBLIC "-//W3C//DTD SVG 20010904//EN"
 "http://www.w3.org/TR/2001/REC-SVG-20010904/DTD/svg10.dtd">
<svg version="1.0" xmlns="http://www.w3.org/2000/svg"
 width="1095.000000pt" height="662.000000pt" viewBox="0 0 1095.000000 662.000000"
 preserveAspectRatio="xMidYMid meet">
<metadata>
Created by potrace 1.16, written by Peter Selinger 2001-2019
</metadata>
<g transform="translate(0.000000,662.000000) scale(0.100000,-0.100000)"
fill="#000000" stroke="none">
<path d="M5263 5467 c-177 -269 -1163 -1763 -1555 -2357 -93 -140 -165 -256
-161 -257 4 -2 242 -48 528 -103 286 -56 539 -109 562 -120 23 -10 49 -30 58
-44 40 -61 43 -47 -215 -1402 -72 -375 -130 -687 -130 -693 0 -7 7 -11 15 -9
8 2 442 676 964 1498 771 1216 946 1496 932 1502 -9 4 -237 50 -508 102 -272
52 -512 104 -537 115 -55 24 -86 70 -86 128 0 50 26 191 209 1145 77 400 141
739 143 755 8 72 -32 25 -219 -260z" fill="#ffa682"/>
<path d="M1220 5266 c-117 -26 -173 -73 -206 -174 -18 -55 -19 -133 -19 -1947
0 -1798 1 -1893 18 -1956 31 -112 91 -165 212 -188 44 -9 450 -11 1480 -9
l1419 3 31 155 c17 85 34 170 38 187 l6 33 -1357 2 c-1348 3 -1357 3 -1392 24
-70 41 -65 -98 -65 1739 0 1587 1 1661 18 1693 12 22 35 41 65 55 l47 22 1490
5 c1155 4 1495 8 1512 17 11 7 35 30 51 51 31 38 192 288 192 297 0 3 -784 5
-1742 4 -1329 0 -1756 -4 -1798 -13z" fill="#ffa682"/>
<path d="M5591 4627 c-68 -358 -126 -657 -128 -662 -2 -7 202 -50 529 -113
467 -89 541 -106 598 -134 85 -43 108 -83 90 -158 -9 -38 -182 -318 -717
-1163 -741 -1167 -883 -1393 -883 -1402 0 -3 822 -4 1828 -3 l1827 3 50 27
c64 33 87 59 122 133 l28 60 0 1920 c0 1813 -1 1922 -18 1964 -39 99 -111 151
-237 171 -42 6 -570 10 -1515 10 l-1450 0 -124 -653z" fill="#ffa682"/>
<path d="M1700 3130 l0 -1450 1280 0 1279 0 6 33 c3 17 32 174 64 347 32 173
58 315 57 316 0 0 -253 49 -561 108 -587 112 -646 128 -681 182 -24 35 -22 88
4 146 11 25 260 410 554 854 507 767 588 892 588 907 0 4 -583 7 -1295 7
l-1295 0 0 -1450z" fill="#ffa682"/>
<path d="M9270 3910 c-20 -20 -20 -33 -20 -790 l0 -770 265 0 265 0 0 790 0
790 -245 0 c-232 0 -246 -1 -265 -20z" fill="#ffa682"/>
</g>
</svg>
