<?xml version="1.0"?>
<svg width="540" height="540" xmlns="http://www.w3.org/2000/svg" xmlns:svg="http://www.w3.org/2000/svg" preserveAspectRatio="xMidYMid meet" version="1.0">
 <metadata>Created by potrace 1.16, written by Peter Selinger 2001-2019</metadata>
 <g class="layer">
  <title>Layer 1</title>
  <g fill="#000000" id="svg_1" transform="matrix(0.0775857 0 0 -0.0775857 308.637 297.984)">
   <path d="m-568.99,3811.52c-13,-7 -33,-25 -44,-40c-18,-24 -21,-51 -29,-265c-13,-319 -9,-428 18,-473c55,-96 207,-92 258,6c20,37 21,56 21,344l0,305l-25,44c-14,24 -37,53 -52,64c-33,24 -114,33 -147,15z" fill="#4B1338" id="svg_2"/>
   <path d="m-2815.99,3074.52c-64,-39 -91,-94 -79,-159c6,-31 40,-70 218,-251c248,-249 274,-271 331,-271c46,0 97,27 120,63c13,19 14,33 5,88c-7,35 -18,77 -26,93c-19,37 -387,407 -433,435c-43,26 -95,27 -136,2z" fill="#4B1338" id="svg_3"/>
   <path d="m1475.01,2862.52c-126,-122 -240,-238 -253,-258c-45,-70 -12,-160 72,-201c39,-19 50,-20 88,-10c37,10 72,41 254,223c116,117 219,227 228,245c9,18 20,55 23,82c5,43 3,51 -20,72c-14,13 -52,32 -84,42c-32,10 -62,20 -68,22c-5,2 -113,-96 -240,-217z" fill="#4B1338" id="svg_4"/>
   <path d="m-749.99,2402.52c-350,-43 -656,-179 -941,-417c-346,-290 -581,-671 -669,-1087c-33,-155 -38,-405 -12,-560c37,-213 88,-355 195,-546c62,-110 158,-238 329,-437c224,-261 316,-394 395,-573c28,-64 28,-65 28,-284c1,-258 11,-311 73,-373c68,-68 44,-66 792,-70c727,-3 803,0 876,43c80,47 104,147 103,439c0,155 17,246 66,353c44,96 80,146 198,277c124,137 353,424 425,531c120,177 224,431 256,624c71,422 -80,971 -375,1367c-268,359 -715,611 -1239,699c-114,19 -396,27 -500,14zm430,-299c583,-72 1078,-456 1292,-1003c23,-56 54,-154 71,-217c29,-109 31,-125 31,-310c1,-217 -9,-274 -81,-455c-92,-233 -280,-500 -538,-766c-170,-174 -256,-319 -306,-512c-22,-89 -40,-249 -33,-305c3,-20 2,-70 -1,-109l-7,-73l-619,0l-619,0l0,58c0,211 -10,362 -29,440c-43,170 -122,303 -291,487c-356,387 -496,603 -581,895c-52,176 -66,434 -34,613c52,294 192,556 419,782c265,263 559,414 915,470c106,16 298,18 411,5z" fill="#4B1338" id="svg_5"/>
   <path d="m-384.99,1805.52c-47,-30 -66,-57 -71,-99c-12,-91 68,-151 238,-178c185,-29 343,-104 469,-222c141,-133 216,-284 243,-486c17,-132 35,-172 94,-212c20,-14 51,-25 68,-25c45,0 112,52 135,105c19,42 19,49 4,147c-52,350 -212,615 -482,795c-132,88 -182,109 -353,148c-200,46 -303,54 -345,27z" fill="#4B1338" id="svg_6"/>
   <path d="m-3760.99,813.52c-41,-21 -69,-77 -69,-134c0,-31 7,-38 71,-82l71,-49l317,0c289,0 319,2 344,18c89,58 88,201 -3,249c-32,16 -63,18 -365,18c-305,-1 -333,-2 -366,-20z" fill="#4B1338" id="svg_7"/>
   <path d="m2043.01,818.52c-51,-22 -75,-69 -70,-138c3,-46 9,-63 32,-87c16,-17 45,-35 64,-40c20,-6 170,-10 341,-10c278,0 309,2 347,19c55,25 76,59 77,125c0,61 -18,97 -67,126c-30,19 -52,20 -362,20c-261,-1 -337,-4 -362,-15z" fill="#4B1338" id="svg_8"/>
   <path d="m-2410.99,-1029.48c-20,-12 -134,-121 -253,-243l-215,-221l10,-61c11,-72 25,-114 42,-124c21,-13 91,-9 143,9c41,14 80,47 251,216c257,253 278,292 207,384c-49,65 -121,80 -185,40z" fill="#4B1338" id="svg_9"/>
   <path d="m1284.01,-1025.48c-64,-39 -91,-94 -79,-159c6,-31 41,-71 233,-265c125,-126 239,-235 254,-243c15,-8 47,-14 72,-14c39,0 52,6 85,36c22,19 45,51 51,70c22,67 6,90 -239,338c-124,125 -240,234 -258,242c-44,19 -82,17 -119,-5z" fill="#4B1338" id="svg_10"/>
   <path d="m-1318.99,-2046.48c-18,-4 -47,-22 -64,-39c-26,-25 -31,-39 -34,-88c-4,-68 8,-98 56,-130l34,-23l814,0c871,0 853,-1 898,50c16,17 20,36 20,91c0,63 -2,71 -31,99c-17,17 -48,35 -70,40c-48,12 -1575,11 -1623,0z" fill="#4B1338" id="svg_11"/>
   <path d="m-1148.99,-2444.48c-53,-27 -74,-62 -74,-126c0,-63 18,-97 66,-126c31,-19 55,-20 653,-20l621,0l34,23c94,63 88,199 -12,249c-31,17 -83,18 -644,18c-561,0 -613,-1 -644,-18z" fill="#4B1338" id="svg_12"/>
   <path d="m-724.99,-2815.48c-16,-4 -40,-13 -53,-20c-82,-44 -81,-203 2,-249c27,-15 60,-17 271,-14c272,3 252,-3 301,94c44,87 28,125 -71,170c-45,20 -67,22 -235,25c-102,1 -198,-1 -215,-6z" fill="#4B1338" id="svg_13"/>
  </g>
 </g>
</svg>