<?xml version="1.0" standalone="no"?>
<!DOCTYPE svg PUBLIC "-//W3C//DTD SVG 20010904//EN"
 "http://www.w3.org/TR/2001/REC-SVG-20010904/DTD/svg10.dtd">
<svg version="1.0" xmlns="http://www.w3.org/2000/svg"
 width="1064.000000pt" height="1149.000000pt" viewBox="0 0 1064.000000 1149.000000"
 preserveAspectRatio="xMidYMid meet">
<metadata>
Created by potrace 1.16, written by Peter Selinger 2001-2019
</metadata>
<g transform="translate(0.000000,1149.000000) scale(0.100000,-0.100000)"
fill="#000000" stroke="none">
<path d="M7425 11260 l-45 -92 0 -457 c0 -415 2 -459 17 -481 23 -34 52 -57
85 -69 33 -12 46 1 91 90 l32 64 -3 415 -4 415 -51 99 c-29 55 -57 101 -64
103 -7 3 -31 -34 -58 -87z" fill="#A04040"/>
<path d="M3423 10382 c-92 -69 -114 -92 -209 -222 -160 -216 -786 -1071 -806
-1100 -10 -14 -25 -35 -34 -47 -17 -24 -106 -224 -101 -229 1 -2 44 -12 95
-23 112 -26 245 -27 527 -6 110 8 212 15 226 15 l26 0 -14 -97 c-7 -54 -49
-285 -93 -513 -95 -495 -150 -795 -150 -818 0 -30 43 -162 52 -162 5 0 38 20
72 45 62 44 63 45 236 357 667 1203 960 1743 966 1784 8 56 -12 89 -63 103
-24 7 -187 11 -427 11 -360 0 -388 1 -382 17 13 32 155 529 181 633 24 94 26
116 20 210 -3 58 -10 108 -13 112 -4 4 -53 -28 -109 -70z" fill="#A04040"/>
<path d="M5345 10341 l11 -100 228 -233 c126 -128 268 -272 315 -319 l86 -87
78 0 c43 -1 82 -4 86 -7 21 -12 24 127 5 196 -3 9 -145 154 -317 321 l-313
305 -59 7 c-33 4 -76 9 -96 12 l-35 5 11 -100z" fill="#A04040"/>
<path d="M9535 10404 c-49 -13 -102 -27 -117 -30 -19 -4 -114 -97 -301 -293
-151 -158 -279 -296 -285 -308 -7 -12 -12 -56 -12 -98 0 -75 1 -77 23 -72 12
3 49 11 81 17 l59 12 294 286 c161 157 304 304 318 327 13 23 33 74 44 114 23
84 30 81 -104 45z" fill="#A04040"/>
<path d="M7295 9465 c-113 -20 -223 -57 -351 -120 -332 -162 -563 -454 -640
-810 -36 -167 -27 -380 22 -555 31 -109 119 -285 186 -375 279 -370 743 -564
1174 -490 466 81 817 372 958 795 46 140 60 241 53 408 -11 307 -119 551 -347
783 -186 188 -358 287 -615 350 -107 27 -330 34 -440 14z m430 -234 c386 -126
626 -354 712 -679 23 -84 26 -118 26 -252 1 -171 -12 -246 -63 -377 -124 -322
-410 -545 -772 -603 -98 -16 -311 -8 -393 15 -245 68 -495 274 -622 512 -145
272 -135 610 28 923 113 218 287 362 533 445 117 39 219 55 341 51 92 -2 127
-8 210 -35z" fill="#A04040"/>
<path d="M4656 8405 c-11 -6 -37 -17 -56 -25 -19 -8 -63 -31 -98 -51 l-63 -37
94 -60 94 -60 370 -7 c363 -7 372 -7 409 13 22 11 79 39 128 61 49 23 87 43
85 45 -11 12 -108 75 -134 88 -17 9 -61 21 -100 27 -96 15 -701 20 -729 6z" fill="#A04040"/>
<path d="M9535 8394 c-22 -14 -71 -45 -109 -69 l-69 -42 56 -42 c105 -80 114
-81 555 -81 l389 0 59 41 c32 23 74 54 92 70 l32 28 -27 18 c-16 10 -53 35
-83 57 l-55 40 -400 4 -400 3 -40 -27z" fill="#A04040"/>
<path d="M2665 7050 l-2120 -6 -80 -23 c-103 -29 -164 -63 -227 -125 -73 -72
-112 -159 -116 -261 -4 -77 2 -99 126 -550 150 -541 975 -3529 991 -3592 18
-67 95 -143 199 -196 217 -111 267 -117 1055 -117 l627 0 0 -297 0 -298 -78
-1 c-125 -2 -285 -45 -364 -97 -18 -12 -43 -42 -56 -68 l-22 -45 10 -289 c12
-318 11 -315 77 -356 l38 -24 1398 -14 1399 -14 44 21 c83 41 84 44 84 393 0
348 -4 373 -71 433 -46 42 -43 41 -232 60 -82 8 -150 16 -152 18 -3 2 -7 115
-11 251 l-7 246 24 9 c51 19 1437 60 2134 63 280 1 319 6 402 46 106 52 181
141 204 241 18 77 1 148 -77 319 -221 490 -662 1453 -823 1801 -104 224 -259
565 -344 757 -543 1225 -619 1372 -806 1547 -116 110 -157 126 -400 154 -172
20 -248 23 -456 22 -137 -1 -1204 -5 -2370 -8z m1463 -833 c118 -285 212 -520
210 -522 -1 -1 -392 -4 -867 -6 l-864 -4 -24 80 c-14 44 -85 277 -159 519 -73
241 -131 442 -128 447 3 5 366 8 812 6 l807 -2 213 -518z m1523 495 c24 -16
56 -46 71 -68 26 -37 428 -904 428 -922 0 -10 -553 -22 -1056 -22 -280 0 -363
3 -367 13 -2 6 -95 236 -206 509 -110 274 -201 502 -201 508 0 7 209 10 643
10 l643 0 45 -28z m-3538 -499 c86 -285 157 -524 157 -530 0 -13 -375 -18
-1317 -18 l-238 0 -126 460 c-140 511 -136 476 -66 543 65 62 47 61 772 62
l660 0 158 -517z m4500 -1491 c159 -345 291 -634 294 -643 4 -15 -52 -17 -659
-24 -364 -3 -706 -5 -758 -3 l-94 3 -142 350 c-308 764 -374 928 -374 936 0 8
1393 19 1430 11 9 -2 127 -247 303 -630z m-2055 456 c39 -95 157 -382 262
-638 106 -256 194 -470 197 -476 5 -14 -1883 -32 -1897 -18 -11 11 -400 1264
-400 1287 0 16 64 17 884 17 l883 0 71 -172z m-2149 65 c141 -457 360 -1197
356 -1202 -8 -8 -1605 -15 -1605 -7 0 7 -155 574 -281 1031 -38 137 -69 255
-69 262 0 10 154 13 784 13 l784 0 31 -97z m642 -2133 l166 -555 -751 -3
c-499 -2 -763 1 -787 8 -48 13 -121 79 -142 127 -18 41 -267 944 -267 968 0
13 100 15 807 13 l807 -3 167 -555z m2127 548 c9 -11 462 -1104 462 -1114 0
-2 -464 -3 -1032 -2 l-1031 3 -174 560 c-95 308 -173 561 -173 563 0 1 436 2
969 2 763 0 971 -3 979 -12z m1920 0 c20 -26 482 -1048 482 -1068 0 -12 -5
-30 -10 -41 -10 -19 -30 -19 -778 -19 -422 0 -772 4 -778 8 -11 7 -454 1102
-454 1121 0 17 1524 15 1538 -1z m-2188 -1793 l0 -325 -733 0 c-722 0 -734 0
-752 20 -16 18 -20 55 -31 293 -7 149 -13 287 -13 305 l-1 32 765 0 765 0 0
-325z m485 -735 l0 -195 -640 0 c-352 0 -920 2 -1262 5 l-623 5 0 193 0 192
1263 -2 1262 -3 0 -195z" fill="#A04040"/>
<path d="M8825 6889 c4 -52 13 -103 20 -114 8 -11 148 -157 312 -324 l298
-304 55 -7 c30 -5 67 -11 83 -15 l27 -7 0 98 c-1 58 -6 108 -13 121 -7 12
-143 156 -304 321 l-292 299 -66 7 c-36 4 -79 9 -96 13 l-31 6 7 -94z" fill="#A04040"/>
<path d="M7442 6347 l-52 -83 -11 -408 c-11 -405 -11 -409 10 -435 11 -14 39
-56 62 -93 43 -71 53 -79 63 -51 4 9 26 46 50 82 l44 66 3 428 4 428 -31 27
c-18 15 -44 48 -59 75 -15 26 -28 47 -29 47 -1 0 -25 -37 -54 -83z" fill="#A04040"/>
</g>
</svg>
