<?xml version="1.0" standalone="no"?>
<!DOCTYPE svg PUBLIC "-//W3C//DTD SVG 20010904//EN"
 "http://www.w3.org/TR/2001/REC-SVG-20010904/DTD/svg10.dtd">
<svg version="1.0" xmlns="http://www.w3.org/2000/svg"
 width="1140.000000pt" height="761.000000pt" viewBox="0 0 1140.000000 761.000000"
 preserveAspectRatio="xMidYMid meet">
<metadata>
Created by potrace 1.16, written by Peter Selinger 2001-2019
</metadata>
<g transform="translate(0.000000,761.000000) scale(0.100000,-0.100000)"
fill="#000000" stroke="none">
<path d="M2513 6688 c-716 -665 -1152 -1566 -1249 -2578 -22 -238 -15 -706 15
-925 123 -905 486 -1678 1079 -2297 83 -86 283 -269 300 -275 4 -1 27 28 52
65 25 36 82 105 128 153 45 47 82 90 82 95 0 5 -16 21 -35 37 -53 42 -267 278
-374 412 -407 509 -660 1074 -775 1732 -64 366 -58 876 15 1283 134 747 478
1393 1058 1993 l104 107 -74 78 c-40 42 -105 110 -145 150 l-71 73 -110 -103z" fill="#239E99"/>
<path d="M8612 6638 l-152 -140 116 -121 c670 -695 1017 -1420 1105 -2312 28
-285 11 -720 -42 -1022 -124 -720 -480 -1397 -1040 -1977 l-143 -148 149 -144
c83 -79 157 -148 165 -153 12 -7 68 51 263 272 136 155 290 341 341 414 733
1034 953 2340 601 3565 -153 536 -406 1020 -754 1448 -86 107 -371 398 -426
437 l-30 21 -153 -140z" fill="#239E99"/>
<path d="M3620 5637 c-235 -210 -423 -462 -576 -772 -99 -203 -172 -413 -213
-621 -41 -204 -53 -328 -53 -539 0 -211 12 -335 52 -538 101 -505 358 -977
717 -1317 54 -51 113 -104 131 -118 l33 -25 142 141 141 141 -105 109 c-207
214 -333 390 -455 637 -149 303 -224 624 -224 960 0 573 232 1150 622 1548 82
83 108 131 108 198 0 29 -34 73 -162 212 l-64 69 -94 -85z" fill="#239E99"/>
<path d="M7540 5555 l-154 -154 25 -20 c57 -44 221 -222 300 -326 237 -309
373 -623 436 -1010 22 -138 25 -502 4 -645 -67 -472 -284 -894 -659 -1281
l-104 -108 24 -30 c12 -16 75 -85 138 -154 l115 -124 30 20 c17 12 89 80 160
152 397 396 651 916 732 1496 23 171 23 520 -1 684 -85 589 -319 1075 -717
1489 -67 69 -134 135 -148 146 l-27 19 -154 -154z" fill="#239E99"/>
<path d="M4629 4648 c-480 -466 -582 -1110 -254 -1603 64 -96 188 -228 278
-295 l58 -43 42 39 c102 94 237 229 237 237 0 4 -26 43 -59 86 -297 390 -370
675 -242 946 37 77 115 187 191 268 53 58 60 69 66 118 6 53 5 56 -37 109 -50
65 -180 214 -189 218 -3 1 -44 -35 -91 -80z" fill="#239E99"/>
<path d="M6552 4571 l-170 -161 75 -73 c139 -134 235 -287 274 -434 25 -93 29
-259 10 -348 -31 -144 -123 -301 -264 -451 l-85 -90 133 -149 c74 -83 140
-151 148 -153 24 -5 258 233 317 322 72 109 134 242 166 361 25 92 28 115 28
290 1 210 -10 282 -68 455 -30 88 -45 113 -206 335 -95 132 -176 244 -181 249
-4 5 -84 -64 -177 -153z" fill="#239E99"/>
<path d="M5375 3931 c-77 -4 -151 -12 -165 -18 -29 -13 -82 -67 -101 -103 -7
-14 -13 -57 -13 -96 0 -62 3 -78 29 -120 21 -34 45 -55 80 -73 l49 -26 411 -3
c277 -2 425 1 455 8 110 27 164 98 165 215 0 97 -29 149 -105 188 l-56 27
-304 4 c-168 2 -368 1 -445 -3z" fill="#239E99"/>
</g>
</svg>
