<?xml version="1.0" standalone="no"?>
<!DOCTYPE svg PUBLIC "-//W3C//DTD SVG 20010904//EN"
 "http://www.w3.org/TR/2001/REC-SVG-20010904/DTD/svg10.dtd">
<svg version="1.0" xmlns="http://www.w3.org/2000/svg"
 width="897.000000pt" height="540.000000pt" viewBox="0 0 897.000000 540.000000"
 preserveAspectRatio="xMidYMid meet">
<metadata>
Created by potrace 1.16, written by Peter Selinger 2001-2019
</metadata>
<g transform="translate(0.000000,540.000000) scale(0.100000,-0.100000)"
fill="#000000" stroke="none">
<path d="M4220 4864 c-179 -272 -429 -651 -555 -842 -127 -191 -331 -500 -455
-687 -123 -187 -304 -461 -402 -609 -98 -148 -177 -270 -176 -271 2 -2 228
-46 503 -99 275 -53 519 -101 542 -107 88 -24 133 -74 133 -150 0 -18 -34
-217 -75 -443 -83 -456 -87 -475 -209 -1106 -47 -245 -86 -451 -86 -458 0 -44
60 41 324 458 161 256 325 513 362 573 903 1413 1240 1953 1225 1959 -9 4
-238 50 -510 102 -535 103 -572 114 -604 176 -30 57 -24 99 132 885 52 263
200 1052 203 1085 8 74 -38 12 -352 -466z" fill="#E42618"/>
<path d="M310 4866 c-117 -26 -173 -73 -206 -174 -18 -55 -19 -133 -19 -1947
0 -1798 1 -1893 18 -1956 31 -112 91 -165 212 -188 44 -9 450 -11 1480 -9
l1419 3 31 155 c17 85 34 170 38 187 l6 33 -1357 2 c-1348 3 -1357 3 -1392 24
-70 41 -65 -98 -65 1739 0 1587 1 1661 18 1693 12 22 35 41 65 55 l47 22 1490
5 c1155 4 1495 8 1512 17 11 7 35 30 51 51 31 38 192 288 192 297 0 3 -784 5
-1742 4 -1329 0 -1756 -4 -1798 -13z" fill="#E42618"/>
<path d="M4764 4662 c-23 -119 -41 -218 -40 -218 4 -4 1902 -24 2306 -25 261
0 501 -4 532 -8 67 -8 104 -32 131 -85 20 -38 20 -42 -7 -1619 -24 -1449 -28
-1584 -44 -1616 -9 -19 -28 -43 -42 -53 -24 -17 -108 -18 -1599 -27 -1277 -8
-1576 -12 -1586 -23 -15 -16 -245 -384 -245 -392 0 -3 814 -6 1809 -6 1654 0
1813 1 1860 17 71 23 122 70 157 145 l29 63 3 1894 c3 2078 6 1967 -56 2056
-35 50 -114 91 -202 105 -42 6 -586 10 -1515 10 l-1450 0 -41 -218z" fill="#E42618"/>
<path d="M8360 3510 c-20 -20 -20 -33 -20 -790 l0 -770 265 0 265 0 0 790 0
790 -245 0 c-232 0 -246 -1 -265 -20z" fill="#E42618"/>
</g>
</svg>
