<?xml version="1.0" standalone="no"?>
<!DOCTYPE svg PUBLIC "-//W3C//DTD SVG 20010904//EN"
 "http://www.w3.org/TR/2001/REC-SVG-20010904/DTD/svg10.dtd">
<svg version="1.0" xmlns="http://www.w3.org/2000/svg"
 width="1249.000000pt" height="1165.000000pt" viewBox="0 0 1249.000000 1165.000000"
 preserveAspectRatio="xMidYMid meet">
<metadata>
Created by potrace 1.16, written by Peter Selinger 2001-2019
</metadata>
<g transform="translate(0.000000,1165.000000) scale(0.100000,-0.100000)"
fill="#000000" stroke="none">
<path d="M8275 11120 c-51 -100 -56 -141 -54 -455 0 -159 1 -308 2 -330 0 -22
-3 -83 -8 -136 -4 -53 -5 -108 -2 -121 8 -31 61 -84 97 -96 l27 -10 42 182 42
182 1 300 c1 282 0 303 -20 364 -24 72 -77 170 -92 170 -5 0 -21 -22 -35 -50z" fill="#828fff"/> <!--pour changer la couleur c'est fill-->
<path d="M4253 10202 c-114 -86 -62 -19 -716 -912 -236 -321 -283 -386 -333
-457 -18 -25 -106 -225 -101 -229 1 -2 44 -12 95 -23 112 -26 245 -27 527 -6
110 8 212 15 226 15 l26 0 -14 -97 c-7 -54 -49 -285 -93 -513 -95 -496 -150
-795 -150 -818 0 -30 43 -162 52 -162 5 0 38 20 72 45 l63 44 203 368 c684
1234 930 1688 936 1729 8 56 -12 89 -63 103 -24 7 -187 11 -427 11 -354 0
-388 1 -382 16 12 31 156 535 182 637 23 91 25 113 19 207 -3 58 -10 108 -13
112 -4 4 -53 -28 -109 -70z m-246 -658 c3 -8 -4 -63 -15 -122 -43 -223 -37
-267 43 -307 37 -18 66 -20 391 -25 l352 -5 -90 -165 c-110 -201 -534 -951
-551 -973 -10 -14 -16 -14 -43 -2 l-32 13 33 164 c18 89 52 234 74 321 63 244
55 321 -37 347 -47 13 -147 13 -265 0 -98 -11 -459 -31 -464 -26 -5 5 579 796
588 796 5 0 12 -7 16 -16z" fill="#828fff"/>
<path d="M6172 10193 c4 -36 15 -77 23 -90 22 -33 500 -517 598 -605 72 -66
81 -71 137 -77 l59 -7 7 52 c12 101 19 92 -324 436 -339 341 -339 341 -453
352 l-55 6 8 -67z" fill="#828fff"/>
<path d="M10410 10235 c-145 -32 -120 -14 -431 -326 -159 -159 -296 -303 -304
-320 -9 -17 -19 -62 -22 -101 l-6 -70 34 7 c135 27 116 12 438 333 164 163
305 308 314 322 24 38 58 170 44 169 -7 -1 -37 -7 -67 -14z" fill="#828fff"/>
<path d="M8125 9284 c-348 -62 -643 -285 -844 -639 -100 -175 -134 -314 -135
-555 0 -164 8 -221 51 -355 130 -406 538 -745 967 -804 562 -78 1135 291 1291
833 37 129 47 206 48 351 0 334 -126 627 -368 853 -274 256 -664 378 -1010
316z m430 -233 c386 -126 626 -354 712 -679 22 -84 26 -118 27 -252 0 -173
-17 -266 -75 -405 -148 -357 -508 -585 -921 -585 -233 0 -421 72 -610 235
-208 178 -331 413 -345 660 -19 325 136 684 370 859 182 136 408 208 632 202
92 -2 127 -8 210 -35z" fill="#828fff"/>
<path d="M5490 8213 c-46 -5 -82 -20 -158 -64 l-62 -36 62 -41 c115 -75 95
-72 516 -72 l379 0 64 26 c77 31 162 74 157 79 -10 10 -108 75 -138 91 -32 18
-62 19 -410 20 -206 1 -391 0 -410 -3z" fill="#828fff"/>
<path d="M10310 8178 c-97 -57 -120 -72 -120 -78 0 -3 30 -25 66 -50 l66 -45
440 -3 c492 -3 461 -7 556 72 l52 45 -72 48 -71 48 -421 3 -421 3 -75 -43z" fill="#828fff"/>
<path d="M1365 6823 c-16 -2 -55 -11 -85 -19 -168 -48 -251 -144 -267 -311
-11 -116 -28 -49 388 -1563 392 -1425 651 -2354 670 -2403 11 -29 55 -114 97
-189 l76 -137 166 -64 c91 -36 192 -72 225 -81 103 -28 389 -39 868 -33 l447
6 0 -329 0 -328 -87 -7 c-131 -10 -234 -30 -281 -54 -84 -43 -101 -123 -102
-469 0 -257 3 -270 72 -296 39 -15 170 -16 1403 -14 l1360 3 53 29 c35 20 55
38 60 55 14 49 7 541 -9 616 -14 68 -15 70 -53 83 -21 7 -112 21 -202 31 -91
10 -170 24 -179 31 -13 11 -15 57 -15 332 l0 319 813 -6 c446 -3 1008 -2 1247
3 402 9 439 11 492 30 86 31 140 72 173 134 26 46 30 63 29 133 0 47 -7 105
-18 140 -19 64 -1766 3882 -1818 3973 -43 76 -121 170 -181 220 -70 57 -189
118 -284 145 l-78 22 -2475 1 c-1361 1 -2488 -1 -2505 -3z m1436 -223 c10 -33
164 -511 278 -866 50 -154 91 -284 91 -287 0 -4 -381 -6 -847 -5 l-847 3 -73
255 c-198 687 -213 764 -168 838 22 37 71 71 119 82 17 5 348 7 735 7 l704 -2
8 -25z m2153 -312 c77 -189 147 -361 157 -383 32 -72 189 -464 189 -471 0 -4
-417 -4 -926 0 -971 7 -957 7 -993 50 -13 15 -100 282 -257 786 -52 168 -99
317 -104 333 l-9 27 902 0 902 0 139 -342z m1380 323 c96 -16 180 -65 276
-161 82 -81 91 -94 177 -265 73 -143 233 -495 330 -723 l14 -34 -628 1 c-345
1 -675 0 -733 -2 -102 -2 -108 -1 -173 31 -49 25 -79 48 -108 85 -57 71 -68
97 -142 317 -36 107 -117 319 -181 471 -64 151 -116 281 -116 288 0 11 114 12
613 8 336 -3 639 -10 671 -16z m-3263 -1375 c88 -19 136 -45 186 -99 75 -82
100 -147 168 -434 35 -149 240 -819 280 -916 7 -17 -29 -18 -841 -15 l-849 3
-38 24 c-21 13 -45 34 -53 46 -8 13 -40 110 -70 217 -66 232 -314 1148 -314
1160 0 4 224 8 498 9 273 1 538 4 587 8 159 14 375 12 446 -3z m2251 -16 c78
-22 71 -7 445 -935 91 -225 174 -429 184 -452 10 -23 19 -47 19 -52 0 -8 -297
-11 -972 -11 -922 0 -975 1 -1013 19 -50 22 -88 66 -108 123 -9 24 -48 149
-87 278 -39 129 -129 413 -200 631 -72 219 -130 400 -130 403 0 11 1822 7
1862 -4z m1795 2 c79 -8 105 -25 148 -92 33 -53 491 -1051 556 -1212 10 -27
28 -71 39 -99 l20 -50 -803 3 -804 3 -41 29 c-56 38 -68 60 -163 287 -104 250
-459 1126 -459 1133 0 9 1422 6 1507 -2z m677 -1643 c84 -15 140 -42 198 -96
63 -59 119 -143 152 -231 92 -244 127 -326 242 -567 164 -346 170 -390 66
-438 -47 -22 -49 -22 -777 -21 l-730 1 -53 23 c-28 12 -65 37 -80 55 -16 18
-64 115 -107 216 -57 136 -381 929 -422 1037 -4 9 124 12 618 13 343 0 644 4
669 8 67 12 159 12 224 0z m-4113 -32 c26 -10 65 -34 87 -52 39 -34 43 -43
151 -372 118 -358 280 -876 276 -881 -5 -6 -1348 -1 -1490 6 -123 7 -168 13
-195 27 -47 24 -143 118 -179 174 -52 82 -119 286 -246 759 -47 175 -88 325
-91 334 -7 24 11 25 886 24 702 -1 758 -2 801 -19z m2316 -5 c28 -13 61 -34
72 -46 12 -13 59 -110 105 -217 73 -170 426 -1042 426 -1052 0 -2 -470 -3
-1044 -2 l-1045 3 -42 23 c-63 35 -93 93 -150 288 -27 95 -110 358 -184 584
-74 227 -138 420 -141 430 -5 17 40 17 973 15 l978 -3 52 -23z m-257 -1857 l0
-325 -726 0 c-483 0 -732 3 -745 10 -10 6 -37 47 -59 90 l-40 80 0 235 0 235
785 0 785 0 0 -325z m488 -747 l2 -208 -927 0 c-511 0 -1080 -3 -1265 -7
l-338 -6 0 216 0 217 1263 -2 1262 -3 3 -207z" fill="#828fff"/>
<path d="M9654 6723 c4 -43 14 -89 22 -102 9 -12 156 -163 328 -335 308 -308
313 -312 372 -329 33 -9 63 -17 67 -17 4 0 7 44 7 98 l1 97 -321 317 c-333
328 -335 330 -434 343 l-49 7 7 -79z" fill="#828fff"/>
<path d="M8289 6192 c-20 -31 -43 -68 -50 -82 -11 -20 -15 -113 -17 -440 l-3
-415 49 -84 c26 -47 52 -86 58 -88 5 -1 27 28 48 65 37 62 40 74 49 177 5 60
7 254 4 430 -4 292 -6 324 -23 360 -19 39 -74 135 -77 135 -1 0 -18 -26 -38
-58z" fill="#828fff"/>
</g>
</svg>
