<?xml version="1.0" standalone="no"?>
<!DOCTYPE svg PUBLIC "-//W3C//DTD SVG 20010904//EN"
 "http://www.w3.org/TR/2001/REC-SVG-20010904/DTD/svg10.dtd">
<svg version="1.0" xmlns="http://www.w3.org/2000/svg"
 width="856.000000pt" height="791.000000pt" viewBox="0 0 856.000000 791.000000"
 preserveAspectRatio="xMidYMid meet">
<metadata>
Created by potrace 1.16, written by Peter Selinger 2001-2019
</metadata>
<g transform="translate(0.000000,791.000000) scale(0.100000,-0.100000)"
fill="#000000" stroke="none">
<path d="M4151 7498 c-13 -7 -33 -25 -44 -40 -18 -24 -21 -51 -29 -265 -13
-319 -9 -428 18 -473 55 -96 207 -92 258 6 20 37 21 56 21 344 l0 305 -25 44
c-14 24 -37 53 -52 64 -33 24 -114 33 -147 15z" fill="#656780"/>
<path d="M1904 6761 c-64 -39 -91 -94 -79 -159 6 -31 40 -70 218 -251 248
-249 274 -271 331 -271 46 0 97 27 120 63 13 19 14 33 5 88 -7 35 -18 77 -26
93 -19 37 -387 407 -433 435 -43 26 -95 27 -136 2z" fill="#656780"/>
<path d="M6195 6549 c-126 -122 -240 -238 -253 -258 -45 -70 -12 -160 72 -201
39 -19 50 -20 88 -10 37 10 72 41 254 223 116 117 219 227 228 245 9 18 20 55
23 82 5 43 3 51 -20 72 -14 13 -52 32 -84 42 -32 10 -62 20 -68 22 -5 2 -113
-96 -240 -217z" fill="#656780"/>
<path d="M3970 6089 c-350 -43 -656 -179 -941 -417 -346 -290 -581 -671 -669
-1087 -33 -155 -38 -405 -12 -560 37 -213 88 -355 195 -546 62 -110 158 -238
329 -437 224 -261 316 -394 395 -573 28 -64 28 -65 28 -284 1 -258 11 -311 73
-373 68 -68 44 -66 792 -70 727 -3 803 0 876 43 80 47 104 147 103 439 0 155
17 246 66 353 44 96 80 146 198 277 124 137 353 424 425 531 120 177 224 431
256 624 71 422 -80 971 -375 1367 -268 359 -715 611 -1239 699 -114 19 -396
27 -500 14z m430 -299 c583 -72 1078 -456 1292 -1003 23 -56 54 -154 71 -217
29 -109 31 -125 31 -310 1 -217 -9 -274 -81 -455 -92 -233 -280 -500 -538
-766 -170 -174 -256 -319 -306 -512 -22 -89 -40 -249 -33 -305 3 -20 2 -70 -1
-109 l-7 -73 -619 0 -619 0 0 58 c0 211 -10 362 -29 440 -43 170 -122 303
-291 487 -356 387 -496 603 -581 895 -52 176 -66 434 -34 613 52 294 192 556
419 782 265 263 559 414 915 470 106 16 298 18 411 5z" fill="#656780"/>
<path d="M4335 5492 c-47 -30 -66 -57 -71 -99 -12 -91 68 -151 238 -178 185
-29 343 -104 469 -222 141 -133 216 -284 243 -486 17 -132 35 -172 94 -212 20
-14 51 -25 68 -25 45 0 112 52 135 105 19 42 19 49 4 147 -52 350 -212 615
-482 795 -132 88 -182 109 -353 148 -200 46 -303 54 -345 27z" fill="#656780"/>
<path d="M959 4500 c-41 -21 -69 -77 -69 -134 0 -31 7 -38 71 -82 l71 -49 317
0 c289 0 319 2 344 18 89 58 88 201 -3 249 -32 16 -63 18 -365 18 -305 -1
-333 -2 -366 -20z" fill="#656780"/>
<path d="M6763 4505 c-51 -22 -75 -69 -70 -138 3 -46 9 -63 32 -87 16 -17 45
-35 64 -40 20 -6 170 -10 341 -10 278 0 309 2 347 19 55 25 76 59 77 125 0 61
-18 97 -67 126 -30 19 -52 20 -362 20 -261 -1 -337 -4 -362 -15z" fill="#656780"/>
<path d="M2309 2657 c-20 -12 -134 -121 -253 -243 l-215 -221 10 -61 c11 -72
25 -114 42 -124 21 -13 91 -9 143 9 41 14 80 47 251 216 257 253 278 292 207
384 -49 65 -121 80 -185 40z" fill="#656780"/>
<path d="M6004 2661 c-64 -39 -91 -94 -79 -159 6 -31 41 -71 233 -265 125
-126 239 -235 254 -243 15 -8 47 -14 72 -14 39 0 52 6 85 36 22 19 45 51 51
70 22 67 6 90 -239 338 -124 125 -240 234 -258 242 -44 19 -82 17 -119 -5z" fill="#656780"/>
<path d="M3401 1640 c-18 -4 -47 -22 -64 -39 -26 -25 -31 -39 -34 -88 -4 -68
8 -98 56 -130 l34 -23 814 0 c871 0 853 -1 898 50 16 17 20 36 20 91 0 63 -2
71 -31 99 -17 17 -48 35 -70 40 -48 12 -1575 11 -1623 0z" fill="#656780"/>
<path d="M3571 1242 c-53 -27 -74 -62 -74 -126 0 -63 18 -97 66 -126 31 -19
55 -20 653 -20 l621 0 34 23 c94 63 88 199 -12 249 -31 17 -83 18 -644 18
-561 0 -613 -1 -644 -18z" fill="#656780"/>
<path d="M3995 871 c-16 -4 -40 -13 -53 -20 -82 -44 -81 -203 2 -249 27 -15
60 -17 271 -14 272 3 252 -3 301 94 44 87 28 125 -71 170 -45 20 -67 22 -235
25 -102 1 -198 -1 -215 -6z" fill="#656780"/>
</g>
</svg>
