<?xml version="1.0"?>
<svg width="540" height="540" xmlns="http://www.w3.org/2000/svg" xmlns:svg="http://www.w3.org/2000/svg" preserveAspectRatio="xMidYMid meet" version="1.0">
 <metadata>Created by potrace 1.16, written by Peter Selinger 2001-2019</metadata>
 <g class="layer">
  <title>Layer 1</title>
  <g fill="#000000" id="svg_1" transform="matrix(0.0603758 0 0 -0.0603758 349.123 287.097)">
   <path d="m-4492.68,3269.2c-716,-665 -1152,-1566 -1249,-2578c-22,-238 -15,-706 15,-925c123,-905 486,-1678 1079,-2297c83,-86 283,-269 300,-275c4,-1 27,28 52,65c25,36 82,105 128,153c45,47 82,90 82,95c0,5 -16,21 -35,37c-53,42 -267,278 -374,412c-407,509 -660,1074 -775,1732c-64,366 -58,876 15,1283c134,747 478,1393 1058,1993l104,107l-74,78c-40,42 -105,110 -145,150l-71,73l-110,-103z" fill="#239E99" id="svg_2"/>
   <path d="m1606.32,3219.2l-152,-140l116,-121c670,-695 1017,-1420 1105,-2312c28,-285 11,-720 -42,-1022c-124,-720 -480,-1397 -1040,-1977l-143,-148l149,-144c83,-79 157,-148 165,-153c12,-7 68,51 263,272c136,155 290,341 341,414c733,1034 953,2340 601,3565c-153,536 -406,1020 -754,1448c-86,107 -371,398 -426,437l-30,21l-153,-140z" fill="#239E99" id="svg_3"/>
   <path d="m-3385.68,2218.2c-235,-210 -423,-462 -576,-772c-99,-203 -172,-413 -213,-621c-41,-204 -53,-328 -53,-539c0,-211 12,-335 52,-538c101,-505 358,-977 717,-1317c54,-51 113,-104 131,-118l33,-25l142,141l141,141l-105,109c-207,214 -333,390 -455,637c-149,303 -224,624 -224,960c0,573 232,1150 622,1548c82,83 108,131 108,198c0,29 -34,73 -162,212l-64,69l-94,-85z" fill="#239E99" id="svg_4"/>
   <path d="m534.32,2136.2l-154,-154l25,-20c57,-44 221,-222 300,-326c237,-309 373,-623 436,-1010c22,-138 25,-502 4,-645c-67,-472 -284,-894 -659,-1281l-104,-108l24,-30c12,-16 75,-85 138,-154l115,-124l30,20c17,12 89,80 160,152c397,396 651,916 732,1496c23,171 23,520 -1,684c-85,589 -319,1075 -717,1489c-67,69 -134,135 -148,146l-27,19l-154,-154z" fill="#239E99" id="svg_5"/>
   <path d="m-2376.68,1229.2c-480,-466 -582,-1110 -254,-1603c64,-96 188,-228 278,-295l58,-43l42,39c102,94 237,229 237,237c0,4 -26,43 -59,86c-297,390 -370,675 -242,946c37,77 115,187 191,268c53,58 60,69 66,118c6,53 5,56 -37,109c-50,65 -180,214 -189,218c-3,1 -44,-35 -91,-80z" fill="#239E99" id="svg_6"/>
   <path d="m-453.68,1152.2l-170,-161l75,-73c139,-134 235,-287 274,-434c25,-93 29,-259 10,-348c-31,-144 -123,-301 -264,-451l-85,-90l133,-149c74,-83 140,-151 148,-153c24,-5 258,233 317,322c72,109 134,242 166,361c25,92 28,115 28,290c1,210 -10,282 -68,455c-30,88 -45,113 -206,335c-95,132 -176,244 -181,249c-4,5 -84,-64 -177,-153z" fill="#239E99" id="svg_7"/>
   <path d="m-1630.68,512.2c-77,-4 -151,-12 -165,-18c-29,-13 -82,-67 -101,-103c-7,-14 -13,-57 -13,-96c0,-62 3,-78 29,-120c21,-34 45,-55 80,-73l49,-26l411,-3c277,-2 425,1 455,8c110,27 164,98 165,215c0,97 -29,149 -105,188l-56,27l-304,4c-168,2 -368,1 -445,-3z" fill="#239E99" id="svg_8"/>
  </g>
 </g>
</svg>