<?xml version="1.0" standalone="no"?>
<!DOCTYPE svg PUBLIC "-//W3C//DTD SVG 20010904//EN"
 "http://www.w3.org/TR/2001/REC-SVG-20010904/DTD/svg10.dtd">
<svg version="1.0" xmlns="http://www.w3.org/2000/svg"
 width="808.000000pt" height="820.000000pt" viewBox="0 0 808.000000 820.000000"
 preserveAspectRatio="xMidYMid meet">
<metadata>
Created by potrace 1.16, written by Peter Selinger 2001-2019
</metadata>
<g transform="translate(0.000000,820.000000) scale(0.100000,-0.100000)"
fill="#000000" stroke="none">
<path d="M4890 7938 l-45 -23 2 -80 c2 -63 16 -126 66 -305 42 -149 60 -226
52 -228 -6 -1 -73 9 -148 23 -286 52 -371 59 -712 60 -343 0 -423 -7 -679 -61
-623 -132 -1176 -442 -1676 -944 -555 -555 -860 -1223 -930 -2035 -13 -152 -7
-208 25 -241 52 -52 153 -36 180 29 8 19 28 143 44 275 35 275 64 417 127 614
229 709 704 1307 1345 1694 240 144 536 269 801 338 303 79 483 101 818 100
274 -1 380 -12 613 -60 206 -44 204 -45 -303 -194 -187 -55 -234 -80 -245
-129 -8 -39 10 -103 36 -127 36 -33 97 -22 439 79 179 53 383 113 454 133 72
21 138 46 149 57 15 15 18 29 15 65 -4 38 -218 780 -260 899 -29 82 -86 102
-168 61z" fill="#656780"/>
<path d="M6080 6610 c-36 -71 -29 -82 184 -294 214 -213 322 -342 465 -556
250 -376 412 -799 481 -1255 30 -201 37 -521 16 -725 -56 -523 -231 -1005
-528 -1450 -65 -96 -196 -262 -220 -276 -7 -4 -9 58 -8 177 2 101 2 242 1 312
l-1 129 -53 55 -54 56 -55 -42 c-45 -34 -57 -48 -62 -79 -3 -20 -6 -254 -6
-519 l0 -483 520 0 520 0 40 36 c28 26 40 44 40 64 0 31 -49 103 -82 121 -16
9 -103 11 -316 10 l-294 -2 33 45 c228 309 339 484 444 701 234 481 337 951
322 1475 -9 313 -53 595 -142 904 -176 614 -452 1067 -898 1474 -158 145 -173
154 -256 160 l-69 5 -22 -43z" fill="#656780"/>
<path d="M3325 6025 l-270 -113 -5 -284 -5 -283 -28 -58 c-32 -63 -71 -99
-138 -122 -38 -14 -79 -15 -299 -9 -240 6 -256 5 -278 -12 -21 -18 -78 -145
-188 -423 l-49 -124 192 -186 c213 -207 224 -224 227 -336 2 -132 -13 -153
-307 -415 -64 -57 -117 -109 -117 -116 0 -15 133 -340 172 -421 37 -75 81
-118 138 -133 25 -7 125 -10 258 -9 252 2 275 -3 350 -85 72 -78 73 -86 70
-354 -3 -265 -2 -273 67 -329 40 -34 300 -144 398 -170 102 -27 123 -17 285
140 75 73 170 157 210 186 l73 54 80 -7 c130 -11 135 -14 249 -161 209 -272
273 -289 555 -148 55 28 132 62 172 77 108 41 108 42 93 325 -9 167 -10 237
-2 266 28 100 118 187 206 200 22 4 156 7 296 8 l254 2 44 100 c24 55 67 152
97 215 30 63 59 136 65 161 24 98 -17 161 -196 299 -157 121 -213 203 -214
309 0 101 36 150 279 370 104 95 131 134 131 190 0 27 -43 138 -171 448 -28
67 -39 82 -59 86 -14 3 -124 -1 -245 -9 -248 -16 -294 -11 -369 36 -51 33
-100 102 -117 164 -8 29 -8 101 0 251 12 227 8 266 -32 303 -13 12 -65 40
-116 62 -142 62 -409 170 -419 170 -5 0 -86 -86 -181 -190 -115 -127 -187
-198 -215 -212 -58 -29 -158 -35 -225 -13 -59 19 -94 52 -296 279 -66 74 -127
135 -135 135 -8 0 -136 -51 -285 -114z m1540 -205 c22 -10 59 -31 82 -48 55
-41 60 -70 38 -232 -21 -149 -13 -234 31 -329 31 -69 217 -254 283 -284 52
-23 131 -26 338 -13 176 11 196 5 228 -68 34 -78 49 -147 41 -192 -9 -43 -80
-120 -191 -204 -124 -94 -160 -185 -159 -395 1 -221 12 -242 267 -464 59 -52
107 -100 107 -107 0 -25 -62 -184 -82 -209 -39 -50 -73 -60 -193 -57 -304 9
-284 10 -357 -26 -77 -38 -210 -157 -256 -230 -52 -81 -62 -135 -62 -335 0
-243 -2 -246 -179 -324 l-76 -33 -84 87 c-46 49 -110 121 -143 160 -96 115
-190 149 -388 140 -117 -5 -179 -24 -264 -80 -66 -44 -147 -126 -203 -205 -41
-57 -84 -92 -113 -92 -6 0 -38 12 -73 27 -187 83 -180 71 -167 294 8 149 7
185 -6 235 -26 101 -130 248 -219 309 -89 62 -151 75 -351 75 -197 0 -223 6
-287 68 -52 49 -77 101 -77 157 0 38 6 51 37 86 21 23 65 59 99 80 120 76 200
192 225 324 6 33 9 121 7 195 -3 125 -5 139 -30 181 -29 49 -121 140 -235 232
-80 65 -98 97 -90 163 7 62 61 168 100 196 27 19 44 23 107 22 41 0 93 -7 115
-14 56 -19 179 -18 240 3 73 25 168 100 271 214 89 97 91 101 97 159 4 32 3
135 -2 229 -11 193 -6 215 52 259 46 35 127 66 173 66 65 0 115 -41 192 -156
109 -164 244 -222 491 -211 167 8 183 16 336 185 128 141 148 158 204 178 39
14 66 11 126 -16z" fill="#656780"/>
<path d="M3996 4864 c-330 -71 -573 -301 -647 -609 -28 -119 -23 -312 11 -420
84 -268 298 -474 566 -546 59 -16 109 -22 199 -22 149 -1 259 24 395 90 82 39
108 58 185 137 69 69 101 111 133 174 200 385 131 754 -191 1022 -92 78 -246
154 -349 175 -95 19 -211 18 -302 -1z m247 -239 c91 -16 202 -68 270 -126 64
-55 131 -152 163 -235 36 -93 45 -252 19 -340 -96 -332 -443 -512 -759 -394
-229 86 -389 332 -371 571 6 86 44 203 89 272 79 124 231 225 378 252 94 17
117 17 211 0z" fill="#656780"/>
<path d="M991 3384 c-17 -14 -56 -71 -88 -127 -31 -56 -130 -226 -221 -377
-178 -297 -201 -341 -202 -382 0 -63 97 -124 158 -99 38 16 60 48 217 311 70
118 131 219 135 223 4 4 31 -48 60 -115 195 -449 391 -747 699 -1062 305 -311
627 -537 1011 -711 449 -203 899 -299 1395 -298 322 1 574 34 879 118 227 62
513 178 541 219 32 44 11 137 -37 170 -35 25 -71 19 -186 -28 -243 -100 -521
-178 -777 -218 -117 -18 -184 -22 -405 -22 -287 0 -373 8 -652 65 -877 178
-1560 657 -2023 1419 -92 150 -219 408 -243 490 -11 41 -20 75 -19 76 1 0 122
-70 269 -157 147 -87 283 -162 304 -168 55 -15 96 5 123 63 19 39 21 51 12 79
-7 19 -22 43 -34 55 -12 11 -177 111 -367 222 -190 112 -356 210 -369 219
-100 69 -132 75 -180 35z" fill="#656780"/>
</g>
</svg>
