<?xml version="1.0" encoding="utf-8"?>
<!-- Generator: Adobe Adobe Illustrator 24.2.0, SVG Export Plug-In . SVG Version: 6.00 Build 0)  -->
<svg version="1.1" id="Calque_1" xmlns="http://www.w3.org/2000/svg" xmlns:xlink="http://www.w3.org/1999/xlink" x="0px" y="0px"
	 width="595.3px" height="841.9px" viewBox="0 0 595.3 841.9" style="enable-background:new 0 0 595.3 841.9;" xml:space="preserve"
	>
<style type="text/css">
	.st0{fill:none;stroke:#000000;stroke-width:3;stroke-linecap:round;stroke-linejoin:round;stroke-miterlimit:10;}
	.st1{fill:none;stroke:#000000;stroke-width:4;stroke-linecap:round;stroke-linejoin:round;stroke-miterlimit:10;}
</style>
<g>
	<path class="st1" d="M552.1,291.5c-1.1-0.7-2.3-0.6-3.6-0.6c-17.7,0-35.3,0.4-53-0.1c-34.9-0.9-69.9,0.1-104.8-0.7
		c-16.9-0.4-33.8-0.8-50.6-0.3c-20.4,0.6-40.7,0.7-61,0.3c-32.5-0.7-64.9,0.2-97.3-0.6c-33.5-0.8-67.1-0.2-100.6-0.5
		c-4.1,0-8.1-0.8-12.2-0.6c-1.1,0.1-2.3,0-3.3,0.9c-0.3,1.3,0.6,2.6,1.3,3.6c11.1,16.4,21.4,33.4,32.1,50.1
		c9.6,15.1,19.2,30.2,28.9,45.2c10.5,16.1,20.7,32.4,31.2,48.6c8.3,12.9,16.6,25.9,24.7,39c1,1.6,2,2.1,3.9,2.1
		c6.8-0.1,13.7,0.3,20.5-0.1c16.3-1,32.6,0.2,48.8-0.6c15.5-0.8,31,0.2,46.4-0.6c16.4-0.8,32.8,0.2,49.1-0.6
		c7.7-0.4,15.3-0.5,22.9-0.4c7.4,0.1,14.9,0.5,22.3-0.1c6.3-0.5,12.5-0.6,18.8-0.5c5.7,0.1,11.3,0.1,17,0.7c4.2,0.4,6.4-1.6,8.4-4.8
		c8.5-13.9,17-27.8,25.6-41.7c8.5-13.8,17-27.6,25.6-41.4c8.7-13.8,17.1-27.7,25.8-41.4c4.7-7.5,9.2-15.1,13.8-22.5
		c4-6.5,7.9-13,12.1-19.4c2.6-4,5.3-8,7.2-12.5"/>
</g>
</svg>
