<?xml version="1.0" encoding="utf-8"?>
<!-- Generator: Adobe Adobe Illustrator 24.2.0, SVG Export Plug-In . SVG Version: 6.00 Build 0)  -->
<svg version="1.1" id="Calque_1" xmlns="http://www.w3.org/2000/svg" xmlns:xlink="http://www.w3.org/1999/xlink" x="0px" y="0px"
	 width="595.3px" height="841.9px" viewBox="0 0 595.3 841.9" style="enable-background:new 0 0 595.3 841.9;" xml:space="preserve"
	>
<style type="text/css">
	.st0{fill:none;stroke:#000000;stroke-width:3;stroke-linecap:round;stroke-linejoin:round;stroke-miterlimit:10;}
	.st1{fill:none;stroke:#000000;stroke-width:4;stroke-linecap:round;stroke-linejoin:round;stroke-miterlimit:10;}
</style>
<g>
	<path class="st0" d="M440.4,275.5c-1.5-1.1-3.2-0.3-4.8-0.3c-53.2-0.1-106.4-0.6-159.5,0.1c-55.9,0.7-111.7,0.1-167.6,0.5
		c-1,0-2.1-0.5-3.1,0.9c56.5,96.5,113.1,193.1,169.9,290.1c5.7-10.3,11-20.1,16.7-29.6c7.9-13.2,15.3-26.8,23-40.1
		c6.1-10.5,12-21.2,17.9-31.8c6.7-11.8,13.4-23.5,20.1-35.2c6.7-11.9,13.4-23.8,20.1-35.7c9.8-17.4,19.8-34.6,29.6-51.9
		c9.2-16.2,18.3-32.5,27.4-48.7c3.4-6,7.2-11.7,10-18.1"/>
</g>
</svg>
